<svg xmlns="http://www.w3.org/2000/svg" width="1200" height="1200" viewBox="0 0 1200 1200">
  <rect width="100%" height="100%" fill="#111214" />
  <line x1="0" y1="0" x2="1200" y2="1200" stroke="#ffd166" stroke-width="12" opacity="0.55" />
<line x1="48" y1="0" x2="1184" y2="1200" stroke="#5d7fbf" stroke-width="12" opacity="0.55" />
<line x1="96" y1="0" x2="1168" y2="1200" stroke="#ffd166" stroke-width="12" opacity="0.55" />
<line x1="144" y1="0" x2="1152" y2="1200" stroke="#5d7fbf" stroke-width="12" opacity="0.55" />
<line x1="192" y1="0" x2="1136" y2="1200" stroke="#ffd166" stroke-width="12" opacity="0.55" />
<line x1="240" y1="0" x2="1120" y2="1200" stroke="#5d7fbf" stroke-width="12" opacity="0.55" />
<line x1="288" y1="0" x2="1104" y2="1200" stroke="#ffd166" stroke-width="12" opacity="0.55" />
<line x1="336" y1="0" x2="1088" y2="1200" stroke="#5d7fbf" stroke-width="12" opacity="0.55" />
<line x1="384" y1="0" x2="1072" y2="1200" stroke="#ffd166" stroke-width="12" opacity="0.55" />
<line x1="432" y1="0" x2="1056" y2="1200" stroke="#5d7fbf" stroke-width="12" opacity="0.55" />
<line x1="480" y1="0" x2="1040" y2="1200" stroke="#ffd166" stroke-width="12" opacity="0.55" />
<line x1="528" y1="0" x2="1024" y2="1200" stroke="#5d7fbf" stroke-width="12" opacity="0.55" />
<line x1="576" y1="0" x2="1008" y2="1200" stroke="#ffd166" stroke-width="12" opacity="0.55" />
<line x1="624" y1="0" x2="992" y2="1200" stroke="#5d7fbf" stroke-width="12" opacity="0.55" />
<line x1="672" y1="0" x2="976" y2="1200" stroke="#ffd166" stroke-width="12" opacity="0.55" />
<line x1="720" y1="0" x2="960" y2="1200" stroke="#5d7fbf" stroke-width="12" opacity="0.55" />
<line x1="768" y1="0" x2="944" y2="1200" stroke="#ffd166" stroke-width="12" opacity="0.55" />
<line x1="816" y1="0" x2="928" y2="1200" stroke="#5d7fbf" stroke-width="12" opacity="0.55" />
<line x1="864" y1="0" x2="912" y2="1200" stroke="#ffd166" stroke-width="12" opacity="0.55" />
<line x1="912" y1="0" x2="896" y2="1200" stroke="#5d7fbf" stroke-width="12" opacity="0.55" />
<line x1="960" y1="0" x2="880" y2="1200" stroke="#ffd166" stroke-width="12" opacity="0.55" />
<line x1="1008" y1="0" x2="864" y2="1200" stroke="#5d7fbf" stroke-width="12" opacity="0.55" />
<line x1="1056" y1="0" x2="848" y2="1200" stroke="#ffd166" stroke-width="12" opacity="0.55" />
<line x1="1104" y1="0" x2="832" y2="1200" stroke="#5d7fbf" stroke-width="12" opacity="0.55" />
<line x1="1152" y1="0" x2="816" y2="1200" stroke="#ffd166" stroke-width="12" opacity="0.55" />
<line x1="1200" y1="0" x2="800" y2="1200" stroke="#5d7fbf" stroke-width="12" opacity="0.55" />
<line x1="1248" y1="0" x2="784" y2="1200" stroke="#ffd166" stroke-width="12" opacity="0.55" />
<line x1="1296" y1="0" x2="768" y2="1200" stroke="#5d7fbf" stroke-width="12" opacity="0.55" />
<line x1="1344" y1="0" x2="752" y2="1200" stroke="#ffd166" stroke-width="12" opacity="0.55" />
<line x1="1392" y1="0" x2="736" y2="1200" stroke="#5d7fbf" stroke-width="12" opacity="0.55" />
<line x1="1440" y1="0" x2="720" y2="1200" stroke="#ffd166" stroke-width="12" opacity="0.55" />
<line x1="1488" y1="0" x2="704" y2="1200" stroke="#5d7fbf" stroke-width="12" opacity="0.55" />
<line x1="1536" y1="0" x2="688" y2="1200" stroke="#ffd166" stroke-width="12" opacity="0.55" />
<line x1="1584" y1="0" x2="672" y2="1200" stroke="#5d7fbf" stroke-width="12" opacity="0.55" />
<line x1="1632" y1="0" x2="656" y2="1200" stroke="#ffd166" stroke-width="12" opacity="0.55" />
<line x1="1680" y1="0" x2="640" y2="1200" stroke="#5d7fbf" stroke-width="12" opacity="0.55" />
  <rect x="80" y="80" width="1040" height="1040" fill="none" stroke="#ffd166" stroke-width="8" />
  <text x="110" y="150" fill="#f1f1f2" font-family="Arial, sans-serif" font-size="54">PDS fixture</text>
  <text x="110" y="220" fill="#b8babf" font-family="Arial, sans-serif" font-size="34">senal visual sintetica para compresion</text>
</svg>