<svg xmlns="http://www.w3.org/2000/svg" width="1600" height="1000" viewBox="0 0 1600 1000">
  <rect width="100%" height="100%" fill="#111214" />
  <line x1="0" y1="0" x2="1600" y2="1000" stroke="#78d6b5" stroke-width="12" opacity="0.55" />
<line x1="48" y1="0" x2="1584" y2="1000" stroke="#5d7fbf" stroke-width="12" opacity="0.55" />
<line x1="96" y1="0" x2="1568" y2="1000" stroke="#78d6b5" stroke-width="12" opacity="0.55" />
<line x1="144" y1="0" x2="1552" y2="1000" stroke="#5d7fbf" stroke-width="12" opacity="0.55" />
<line x1="192" y1="0" x2="1536" y2="1000" stroke="#78d6b5" stroke-width="12" opacity="0.55" />
<line x1="240" y1="0" x2="1520" y2="1000" stroke="#5d7fbf" stroke-width="12" opacity="0.55" />
<line x1="288" y1="0" x2="1504" y2="1000" stroke="#78d6b5" stroke-width="12" opacity="0.55" />
<line x1="336" y1="0" x2="1488" y2="1000" stroke="#5d7fbf" stroke-width="12" opacity="0.55" />
<line x1="384" y1="0" x2="1472" y2="1000" stroke="#78d6b5" stroke-width="12" opacity="0.55" />
<line x1="432" y1="0" x2="1456" y2="1000" stroke="#5d7fbf" stroke-width="12" opacity="0.55" />
<line x1="480" y1="0" x2="1440" y2="1000" stroke="#78d6b5" stroke-width="12" opacity="0.55" />
<line x1="528" y1="0" x2="1424" y2="1000" stroke="#5d7fbf" stroke-width="12" opacity="0.55" />
<line x1="576" y1="0" x2="1408" y2="1000" stroke="#78d6b5" stroke-width="12" opacity="0.55" />
<line x1="624" y1="0" x2="1392" y2="1000" stroke="#5d7fbf" stroke-width="12" opacity="0.55" />
<line x1="672" y1="0" x2="1376" y2="1000" stroke="#78d6b5" stroke-width="12" opacity="0.55" />
<line x1="720" y1="0" x2="1360" y2="1000" stroke="#5d7fbf" stroke-width="12" opacity="0.55" />
<line x1="768" y1="0" x2="1344" y2="1000" stroke="#78d6b5" stroke-width="12" opacity="0.55" />
<line x1="816" y1="0" x2="1328" y2="1000" stroke="#5d7fbf" stroke-width="12" opacity="0.55" />
<line x1="864" y1="0" x2="1312" y2="1000" stroke="#78d6b5" stroke-width="12" opacity="0.55" />
<line x1="912" y1="0" x2="1296" y2="1000" stroke="#5d7fbf" stroke-width="12" opacity="0.55" />
<line x1="960" y1="0" x2="1280" y2="1000" stroke="#78d6b5" stroke-width="12" opacity="0.55" />
<line x1="1008" y1="0" x2="1264" y2="1000" stroke="#5d7fbf" stroke-width="12" opacity="0.55" />
<line x1="1056" y1="0" x2="1248" y2="1000" stroke="#78d6b5" stroke-width="12" opacity="0.55" />
<line x1="1104" y1="0" x2="1232" y2="1000" stroke="#5d7fbf" stroke-width="12" opacity="0.55" />
<line x1="1152" y1="0" x2="1216" y2="1000" stroke="#78d6b5" stroke-width="12" opacity="0.55" />
<line x1="1200" y1="0" x2="1200" y2="1000" stroke="#5d7fbf" stroke-width="12" opacity="0.55" />
<line x1="1248" y1="0" x2="1184" y2="1000" stroke="#78d6b5" stroke-width="12" opacity="0.55" />
<line x1="1296" y1="0" x2="1168" y2="1000" stroke="#5d7fbf" stroke-width="12" opacity="0.55" />
<line x1="1344" y1="0" x2="1152" y2="1000" stroke="#78d6b5" stroke-width="12" opacity="0.55" />
<line x1="1392" y1="0" x2="1136" y2="1000" stroke="#5d7fbf" stroke-width="12" opacity="0.55" />
<line x1="1440" y1="0" x2="1120" y2="1000" stroke="#78d6b5" stroke-width="12" opacity="0.55" />
<line x1="1488" y1="0" x2="1104" y2="1000" stroke="#5d7fbf" stroke-width="12" opacity="0.55" />
<line x1="1536" y1="0" x2="1088" y2="1000" stroke="#78d6b5" stroke-width="12" opacity="0.55" />
<line x1="1584" y1="0" x2="1072" y2="1000" stroke="#5d7fbf" stroke-width="12" opacity="0.55" />
<line x1="1632" y1="0" x2="1056" y2="1000" stroke="#78d6b5" stroke-width="12" opacity="0.55" />
<line x1="1680" y1="0" x2="1040" y2="1000" stroke="#5d7fbf" stroke-width="12" opacity="0.55" />
  <rect x="80" y="80" width="1440" height="840" fill="none" stroke="#78d6b5" stroke-width="8" />
  <text x="110" y="150" fill="#f1f1f2" font-family="Arial, sans-serif" font-size="54">PDS fixture</text>
  <text x="110" y="220" fill="#b8babf" font-family="Arial, sans-serif" font-size="34">senal visual sintetica para compresion</text>
</svg>